<svg width="80" height="80" viewBox="0 0 80 80" fill="none" xmlns="http://www.w3.org/2000/svg">
<path d="M29 39C29 38.4477 29.4477 38 30 38C30.5523 38 31 38.4477 31 39V53C31 55.7614 28.7614 58 26 58H18.6632C18.1015 59.1825 16.8962 60 15.5 60C13.567 60 12 58.433 12 56.5C12 54.567 13.567 53 15.5 53C17.2632 53 18.7219 54.3039 18.9646 56H26C27.6569 56 29 54.6569 29 53V39Z" fill="#717FFF"/>
<path d="M52 39C52 38.4477 51.5523 38 51 38C50.4477 38 50 38.4477 50 39V53C50 55.7614 52.2386 58 55 58H61.3368C61.8985 59.1825 63.1038 60 64.5 60C66.433 60 68 58.433 68 56.5C68 54.567 66.433 53 64.5 53C62.7368 53 61.2781 54.3039 61.0354 56H55C53.3431 56 52 54.6569 52 53V39Z" fill="#717FFF"/>
<path d="M46 47C46 46.4477 45.5523 46 45 46C44.4477 46 44 46.4477 44 47V61C44 63.7614 46.2386 66 49 66H51C51.1095 66 51.2149 65.9824 51.3135 65.9499C51.8647 67.1593 53.0842 68 54.5 68C56.433 68 58 66.433 58 64.5C58 62.567 56.433 61 54.5 61C52.7366 61 51.2777 62.3042 51.0354 64.0006C51.0236 64.0002 51.0118 64 51 64H49C47.3431 64 46 62.6569 46 61V47Z" fill="#717FFF"/>
<path d="M36 46C35.4477 46 35 46.4477 35 47V61C35 62.6569 33.6569 64 32 64H29.9646C29.7219 62.3039 28.2632 61 26.5 61C24.567 61 23 62.567 23 64.5C23 66.433 24.567 68 26.5 68C27.8962 68 29.1015 67.1825 29.6632 66H32C34.7614 66 37 63.7614 37 61V47C37 46.4477 36.5523 46 36 46Z" fill="#717FFF"/>
<path d="M22 18C22 14.6863 24.6863 12 28 12H53C56.3137 12 59 14.6863 59 18V43C59 46.3137 56.3137 49 53 49H28C24.6863 49 22 46.3137 22 43V18Z" fill="#0A014F"/>
<path d="M38 21.5C38 20.1193 39.1193 19 40.5 19V19C41.8807 19 43 20.1193 43 21.5V26.5C43 27.8807 41.8807 29 40.5 29V29C39.1193 29 38 27.8807 38 26.5V21.5Z" fill="#717FFF"/>
<path d="M35.5 34C36.8807 34 38 35.1193 38 36.5V36.5C38 37.8807 36.8807 39 35.5 39L30.5 39C29.1193 39 28 37.8807 28 36.5V36.5C28 35.1193 29.1193 34 30.5 34L35.5 34Z" fill="#717FFF"/>
<path d="M50.5 34C51.8807 34 53 35.1193 53 36.5V36.5C53 37.8807 51.8807 39 50.5 39L45.5 39C44.1193 39 43 37.8807 43 36.5V36.5C43 35.1193 44.1193 34 45.5 34L50.5 34Z" fill="#717FFF"/>
<path d="M27 30.5C27 31.3284 26.3284 32 25.5 32C24.6716 32 24 31.3284 24 30.5C24 29.6716 24.6716 29 25.5 29C26.3284 29 27 29.6716 27 30.5Z" fill="#717FFF"/>
<path d="M57 30.5C57 31.3284 56.3284 32 55.5 32C54.6716 32 54 31.3284 54 30.5C54 29.6716 54.6716 29 55.5 29C56.3284 29 57 29.6716 57 30.5Z" fill="#717FFF"/>
</svg>
