<svg width="52" height="58" viewBox="0 0 52 58" fill="none" xmlns="http://www.w3.org/2000/svg">
<path fill-rule="evenodd" clip-rule="evenodd" d="M25.1225 0.910156H27.0134H27.0233C38.903 0.910156 44.14 2.70261 48.3079 8.2474C51.6342 12.6104 51.6342 19.7802 51.6342 24.5371C51.6342 29.294 51.5946 36.4638 48.3079 40.8366C44.14 46.3715 38.903 48.1738 27.0233 48.1738H25.1324C23.984 48.1738 22.895 48.1541 21.8655 48.1147L14.3317 56.752C14.2243 56.881 14.0897 56.9849 13.9375 57.0564C13.7852 57.1278 13.619 57.1652 13.4506 57.1656C13.2925 57.1669 13.1357 57.1371 12.9892 57.0778C12.8427 57.0184 12.7095 56.9309 12.5972 56.8201C12.4849 56.7093 12.3958 56.5775 12.335 56.4323C12.2742 56.287 12.2428 56.1313 12.2429 55.9739V46.795C8.84826 45.8093 5.88921 43.7091 3.84782 40.8366C0.521484 36.4638 0.521484 29.294 0.521484 24.5371C0.521484 19.7802 0.521484 12.6399 3.83792 8.2474C8.00574 2.70261 13.2427 0.910156 25.1225 0.910156ZM24.8105 12.8891C30.6468 13.0496 35.4403 16.8521 36.4676 22.5167C36.621 23.3629 36.6878 24.2258 36.7544 25.0859L36.7544 25.086C36.7638 25.2069 36.7732 25.3276 36.7827 25.4483C36.8155 25.8604 36.5778 26.2519 36.1249 26.2572C35.657 26.2627 35.4465 25.8784 35.4162 25.4665C35.404 25.3019 35.3927 25.1371 35.3813 24.9723L35.3812 24.9713C35.3362 24.3202 35.2912 23.6686 35.1999 23.0237C34.5958 18.7555 31.129 15.2243 26.8016 14.4666C26.3529 14.388 25.897 14.3493 25.4411 14.3106L25.4411 14.3106L25.441 14.3106L25.441 14.3106C25.2352 14.2931 25.0294 14.2757 24.8243 14.2546L24.754 14.2475C24.3482 14.2073 23.856 14.1586 23.7688 13.6779C23.6912 13.2513 24.0581 12.9115 24.4719 12.8897C24.5517 12.8854 24.632 12.8867 24.7122 12.8879L24.7537 12.8886C24.7675 12.8887 24.7813 12.8889 24.7951 12.889C24.8003 12.889 24.8054 12.8891 24.8105 12.8891ZM31.6818 37.7567C31.525 37.71 31.3705 37.6682 31.2188 37.6271C30.8998 37.5408 30.5928 37.4577 30.301 37.3388C25.8391 35.5215 21.7327 33.1769 18.48 29.5828C16.6303 27.539 15.1825 25.2315 13.9587 22.7897C13.4383 21.7513 12.9913 20.6765 12.5451 19.6037L12.3907 19.2327C11.9361 18.1425 12.6057 17.0162 13.3107 16.1947C13.9722 15.4238 14.8235 14.8338 15.7454 14.399C16.465 14.0596 17.1748 14.2553 17.7003 14.8541C18.8364 16.1486 19.88 17.5094 20.725 19.0099C21.2446 19.9329 21.102 21.0611 20.1603 21.6892C19.9764 21.8119 19.8056 21.9517 19.6349 22.0914C19.5932 22.1255 19.5515 22.1597 19.5096 22.1935C19.3226 22.3447 19.1467 22.4973 19.0185 22.7019C18.7842 23.0763 18.773 23.5179 18.9238 23.9249C20.0852 27.0582 22.0427 29.4946 25.255 30.8068C25.3007 30.8255 25.3465 30.8445 25.3924 30.8635C25.8615 31.0579 26.338 31.2552 26.8774 31.1935C27.5191 31.1199 27.8801 30.6468 28.2432 30.1708C28.4412 29.9112 28.6399 29.6507 28.8852 29.4538C29.5645 28.9085 30.4326 28.9013 31.1643 29.3559C31.8961 29.8106 32.6056 30.2988 33.3108 30.7921L33.4535 30.8919C34.0976 31.3418 34.7361 31.788 35.3308 32.3021C35.9447 32.8329 36.1562 33.5293 35.8104 34.2497C35.1775 35.569 34.2565 36.6666 32.928 37.3672C32.6714 37.5024 32.3808 37.575 32.0873 37.6484L32.0872 37.6484C31.9517 37.6823 31.8155 37.7163 31.6818 37.7567ZM33.6747 24.247C33.6773 24.2183 33.6794 24.194 33.6818 24.1759C33.6749 24.0592 33.6688 23.9509 33.6629 23.8484L33.6629 23.8479C33.6492 23.6056 33.6373 23.3961 33.6213 23.1867C33.6153 23.1093 33.601 23.0324 33.5868 22.9555C33.5788 22.9127 33.5709 22.8698 33.5644 22.8268C33.1606 20.1734 31.7774 18.1862 29.356 16.9273C28.1652 16.3083 26.8716 16.0241 25.5322 15.9494C25.1246 15.9268 24.8513 16.1909 24.8334 16.5581C24.8142 16.9499 25.0305 17.2033 25.4355 17.2586C25.5616 17.2758 25.688 17.2912 25.8143 17.3066L25.8144 17.3066C26.0229 17.332 26.2313 17.3574 26.4384 17.391C27.1994 17.5146 27.9503 17.7221 28.6446 18.0558C29.7928 18.6079 30.7718 19.5201 31.4125 20.6054C32.0359 21.6612 32.3046 22.8735 32.3066 24.0871C32.307 24.2726 32.3161 24.4686 32.3766 24.6409C32.5812 25.2214 33.4696 25.1494 33.6245 24.5742C33.6563 24.4559 33.6672 24.3321 33.6747 24.2472L33.6747 24.2471V24.247Z" fill="#717FFF"/>
</svg>
