<svg width="56" height="40" viewBox="0 0 56 40" fill="none" xmlns="http://www.w3.org/2000/svg">
<path d="M52.2988 2.82331C50.139 1.14994 46.7262 0.458766 41.1891 0.495144C38.6295 0.495144 18.0811 0.349634 10.7576 0.658843C8.30463 0.868014 5.94051 1.15903 3.82524 2.40496C3.5117 2.59757 3.21442 2.81659 2.93647 3.05976L27.5998 19.6752L52.2988 2.82331Z" fill="#717FFF"/>
<path d="M55.4859 16.5463C55.5392 11.6808 55.5748 7.97936 53.9839 5.36927L27.6141 23.3762L1.42203 5.70576C-0.186649 8.84333 -0.00889229 13.3723 0.133311 17.2193C0.204413 19.0836 0.186637 24.6221 0.133311 25.868C0.0355462 30.1606 -0.0977692 35.499 4.57716 37.7817C6.72198 38.6459 9.00045 39.1109 11.3052 39.1549C15.749 39.3095 39.1148 39.2823 41.2745 39.2732C47.4159 39.3277 50.9443 38.4365 53.024 36.2993C55.5748 33.6892 55.5304 29.6422 55.477 24.031C55.477 22.8396 55.477 17.6649 55.477 16.5281" fill="#717FFF"/>
</svg>
