<svg width="40" height="61" viewBox="0 0 40 61" fill="none" xmlns="http://www.w3.org/2000/svg">
<path d="M39.404 25.3014C39.404 21.6906 39.404 17.9688 39.3623 14.5372C39.3626 12.164 39.1757 9.7946 38.8033 7.45214C38.5857 6.17506 38.1569 4.94529 37.5353 3.8157C37.4352 3.65351 37.3184 3.46571 37.1766 3.26084L36.7762 2.74013L35.7334 1.75847L33.8898 0.751194L33.3726 0.580465L33.0055 0.478034C32.4185 0.329361 31.8219 0.223809 31.2203 0.162191C30.2526 0.0512196 29.2765 0.0170725 28.3422 0C25.339 0 21.3514 0 17.6641 0H13.5514C12.3418 0 11.0487 5.25442e-07 9.84743 0.0938992C8.87182 0.15102 7.90311 0.29671 6.95269 0.529249L6.47718 0.674364C6.32701 0.725581 6.14349 0.785333 5.93493 0.879232L4.63354 1.56213L2.87332 3.26938L2.61472 3.65351C2.00052 4.70898 1.5661 5.86358 1.33002 7.06801C1.05954 8.42158 0.889427 9.79414 0.821139 11.1739C0.654294 14.2299 0.654297 17.3286 0.654297 20.3931V30.7476C0.654297 35.5876 0.654297 40.991 0.654297 44.7811C0.654297 46.0274 0.695999 47.4871 0.762737 48.9298C0.815133 50.4092 0.962832 51.8835 1.20487 53.343C1.42121 54.633 1.84102 55.8785 2.44787 57.0306C2.59693 57.2965 2.76128 57.553 2.94006 57.7989L3.42391 58.3964L4.80039 59.5488L5.23418 59.7964L6.64402 60.3768C8.00664 60.7395 9.40727 60.9316 10.8151 60.9488C12.2417 60.9488 14.2188 61 16.2293 61H24.0876C25.7561 61 27.4662 61 29.0179 60.9573C30.4609 60.9545 31.8981 60.7711 33.2975 60.411L33.6729 60.2915L34.2151 60.0781L35.0493 59.6598L36.6427 58.3538L37.0682 57.8245C37.1599 57.705 37.2517 57.5599 37.3351 57.4318C37.4466 57.2638 37.5496 57.09 37.6438 56.9111C38.2221 55.7827 38.6192 54.5664 38.82 53.3088C39.1521 51.0997 39.325 48.8686 39.3372 46.6335C39.3873 43.33 39.3873 39.3265 39.379 35.4596L39.404 25.3014ZM37.0348 46.642C37.0317 48.7512 36.8728 50.8571 36.5593 52.9418C36.4008 53.9435 36.0912 54.914 35.6416 55.8185L35.4247 56.1856L35.2412 56.4502L35.0911 56.6465L34.3069 57.3977L32.6384 58.183C31.4198 58.4833 30.1712 58.638 28.9178 58.644C27.3912 58.6867 25.706 58.644 24.071 58.6867H16.2793C14.2939 58.6867 12.3418 58.6867 10.9486 58.6355C9.75011 58.6301 8.55672 58.4753 7.39483 58.1745L6.35205 57.7562L5.51782 57.2014L5.3176 57.0136L4.80873 56.416C4.69438 56.257 4.58855 56.0917 4.49172 55.9209C4.02162 54.9967 3.69515 54.0031 3.52403 52.9759C3.30256 51.6233 3.16602 50.2576 3.11525 48.8871C3.04852 47.4786 3.02349 46.0445 3.01515 44.8238C3.01515 41.0508 3.01515 35.6559 3.01515 30.8244V20.3675C3.01515 17.3969 3.01514 14.3238 3.17364 11.3532C3.22829 10.1038 3.37048 8.86 3.59911 7.6314C3.77792 6.6798 4.11662 5.76713 4.60017 4.93395L5.4344 3.90106L5.65129 3.7218L5.95161 3.49987L7.57001 2.79989C8.36992 2.60633 9.18514 2.48635 10.0059 2.44137C10.8402 2.39015 11.7161 2.37308 12.567 2.36454V2.50966C12.567 3.173 12.8245 3.80917 13.2829 4.27822C13.7413 4.74727 14.363 5.01078 15.0113 5.01078H25.0637C25.7105 5.00852 26.3301 4.74401 26.7867 4.27521C27.2432 3.8064 27.4996 3.17152 27.4996 2.50966V2.39869H28.3338C29.1681 2.39869 30.1024 2.44991 30.995 2.55234C31.4899 2.60053 31.9807 2.68612 32.4632 2.80842L33.6061 3.21817L35.016 4.2852L35.3497 4.70347C35.4247 4.81444 35.4998 4.94249 35.5666 5.05346C36.0538 5.95039 36.3868 6.92635 36.5509 7.93871C36.9038 10.1454 37.0796 12.378 37.0765 14.6141C37.1265 18.0285 37.1182 21.7247 37.1182 25.5234V35.5108C37.1182 39.3692 37.1182 43.3556 37.0682 46.6079" fill="#717FFF"/>
<path d="M29.4754 23.8507H10.5802C9.77557 23.8529 9.00448 24.181 8.43549 24.7632C7.8665 25.3455 7.54587 26.1345 7.54366 26.9579V33.1723C7.54587 33.9956 7.8665 34.7847 8.43549 35.3669C9.00448 35.9491 9.77557 36.2772 10.5802 36.2794H29.4754C30.2801 36.2772 31.0512 35.9491 31.6202 35.3669C32.1892 34.7847 32.5098 33.9956 32.512 33.1723V26.9579C32.5098 26.1345 32.1892 25.3455 31.6202 24.7632C31.0512 24.181 30.2801 23.8529 29.4754 23.8507Z" fill="#717FFF"/>
<path d="M29.4754 8.67403H10.5802C9.77557 8.67629 9.00448 9.00437 8.43549 9.5866C7.8665 10.1688 7.54587 10.9578 7.54366 11.7812V17.9956C7.54587 18.819 7.8665 19.608 8.43549 20.1902C9.00448 20.7725 9.77557 21.1005 10.5802 21.1028H29.4754C30.2801 21.1005 31.0512 20.7725 31.6202 20.1902C32.1892 19.608 32.5098 18.819 32.512 17.9956V11.7812C32.5098 10.9578 32.1892 10.1688 31.6202 9.5866C31.0512 9.00437 30.2801 8.67629 29.4754 8.67403Z" fill="#717FFF"/>
</svg>
