<svg width="31" height="30" viewBox="0 0 31 30" fill="none" xmlns="http://www.w3.org/2000/svg">
<path fill-rule="evenodd" clip-rule="evenodd" d="M30.4457 15C30.4457 23.2843 23.6302 30 15.2229 30C6.81551 30 0 23.2843 0 15C0 6.71573 6.81551 0 15.2229 0C23.6302 0 30.4457 6.71573 30.4457 15ZM12.8221 28.2879C10.7612 26.9709 8.89455 24.6387 7.72726 21.834C6.30906 21.7536 5.18416 20.595 5.18416 19.1774C5.18416 18.8375 5.24883 18.5125 5.3667 18.2137C3.91327 16.6741 2.70102 14.6449 1.85937 12.0352C1.64232 12.9892 1.52779 13.9814 1.52779 15C1.52779 21.6458 6.40324 27.1695 12.8221 28.2879ZM2.68556 9.56125C3.28066 12.7218 4.62458 15.1637 6.4216 16.9403C6.45423 16.9196 6.48735 16.8995 6.52093 16.8801C6.3071 14.1528 6.82068 11.2954 8.38643 8.65657C8.15445 8.29072 8.01018 7.86532 7.98262 7.40896C6.6531 7.28573 5.24386 7.34006 3.767 7.60252C3.35428 8.22183 2.99189 8.87662 2.68556 9.56125ZM5.07474 5.93823C7.58036 3.21543 11.199 1.50539 15.2229 1.50539C15.7827 1.50539 16.3347 1.53849 16.8769 1.60281C14.8087 2.53011 13.0989 3.60658 11.7047 4.7863C11.3883 4.6581 11.0417 4.5874 10.6784 4.5874C9.75194 4.5874 8.93444 5.04708 8.44801 5.74761C7.27343 5.62786 6.13214 5.68552 5.07474 5.93823ZM19.314 2.11779C24.5824 3.7406 28.4828 8.41486 28.8839 14.0404C27.489 16.0965 25.5798 17.7056 23.4198 18.8199C23.0858 18.4008 22.6269 18.083 22.0984 17.9208C21.013 13.015 17.4142 9.20518 13.3788 7.21584C13.3718 6.64167 13.1802 6.11125 12.8599 5.67951C14.5503 4.13274 16.7024 2.88856 19.314 2.11779ZM28.8549 16.303C28.3882 21.1031 25.3694 25.1691 21.1512 27.1682C21.7483 25.7108 22.1214 24.2951 22.3017 22.9319C23.2944 22.5385 23.9952 21.5809 23.9952 20.462C23.9952 20.3938 23.9926 20.3261 23.9874 20.2591C26.1292 19.1857 27.8651 17.7874 28.8549 16.303ZM18.9278 27.995C19.8655 26.441 20.4166 24.7553 20.6213 23.0397C19.9716 22.8755 19.4163 22.479 19.0521 21.9453C15.965 22.561 12.6277 22.4525 9.64977 21.1915C9.53962 21.2853 9.4217 21.3705 9.29708 21.446C10.508 24.3239 12.751 26.8526 16.033 28.4714C17.0303 28.414 17.999 28.2515 18.9278 27.995ZM10.5467 19.6285C13.0509 20.6331 15.8657 20.8723 18.5943 20.4181C18.6122 19.3275 19.296 18.3963 20.2626 18.0022C19.2604 14.1477 16.6357 10.6644 12.8785 8.79205C12.3888 9.46848 11.5859 9.90953 10.6784 9.90953C10.3551 9.90953 10.045 9.85354 9.75765 9.75087C8.6754 11.8814 8.16732 14.2226 8.2363 16.5387C9.56171 16.7084 10.5854 17.8251 10.5854 19.1774C10.5854 19.3312 10.5721 19.4819 10.5467 19.6285ZM22.7683 20.5183C22.7683 21.2693 22.1504 21.8782 21.3882 21.8782C20.626 21.8782 20.0081 21.2693 20.0081 20.5183C20.0081 19.7673 20.626 19.1584 21.3882 19.1584C22.1504 19.1584 22.7683 19.7673 22.7683 20.5183ZM10.6996 8.53557C11.4618 8.53557 12.0796 7.92673 12.0796 7.17569C12.0796 6.42465 11.4618 5.81581 10.6996 5.81581C9.93736 5.81581 9.31948 6.42465 9.31948 7.17569C9.31948 7.92673 9.93736 8.53557 10.6996 8.53557ZM9.31948 19.1584C9.31948 19.9095 8.70159 20.5183 7.93939 20.5183C7.17719 20.5183 6.55931 19.9095 6.55931 19.1584C6.55931 18.4074 7.17719 17.7986 7.93939 17.7986C8.70159 17.7986 9.31948 18.4074 9.31948 19.1584Z" fill="#FAFAFA"/>
</svg>
