<svg width="134" height="89" viewBox="0 0 134 89" fill="none" xmlns="http://www.w3.org/2000/svg">
<path fill-rule="evenodd" clip-rule="evenodd" d="M33.1241 26.0868C15.5594 27.7387 -0.435593 42.2656 0.581822 60.16C0.894866 65.6658 4.05836 73.2397 9.79516 79.1889C15.6313 85.2411 24.3043 89.7842 35.622 88.7178C46.4724 87.6955 53.1353 84.5042 58.7206 78.8675C61.4259 76.1373 63.8199 72.8939 66.2989 69.2471C67.3883 67.6446 68.5121 65.9367 69.6914 64.1446C69.8569 63.8932 70.0235 63.64 70.1912 63.3853C71.5592 61.3077 73.0137 59.1081 74.6141 56.7729C84.7176 42.0304 94.4577 36.7245 102.585 36.7245C106.938 36.7245 113.065 37.8582 118.11 41.3145C123.01 44.6726 127.122 50.3687 127.472 60.1009C127.775 68.5362 124.284 74.1205 119.471 77.6913C114.534 81.3546 108.066 82.9798 102.585 82.9798L67.5198 82.9798L67.5198 88.7309L102.585 88.7309C109.065 88.7309 116.837 86.8436 122.979 82.2866C129.246 77.6371 133.675 70.2933 133.301 59.8972C132.887 48.3742 127.864 40.9952 121.438 36.592C115.156 32.2871 107.765 30.9734 102.585 30.9734C91.6481 30.9734 80.367 38.1065 69.781 53.553C68.1487 55.9348 66.6698 58.1716 65.2988 60.2538C65.1298 60.5105 64.9626 60.7646 64.797 61.0162C63.6147 62.8128 62.5168 64.4812 61.4536 66.0452C59.0239 69.6194 56.869 72.5064 54.5483 74.8486C50.0814 79.3566 44.7832 82.0774 35.0672 82.9929C25.8185 83.8643 18.8355 80.2174 14.0225 75.2262C9.11014 70.132 6.6314 63.8088 6.40564 59.8381C5.56934 45.1291 19.6003 32.2403 35.4457 31.6984C37.788 31.6183 41.7043 32.4449 46.1251 34.2644C50.4818 36.0575 55.0107 38.6856 58.5927 41.9119L60.7459 43.8514L64.6801 39.6054L62.5269 37.6659C58.3503 33.904 53.2127 30.9495 48.372 28.9572C45.2381 27.6674 42.0891 26.7238 39.294 26.2616C42.7346 18.2646 51.2001 10.202 61.2703 7.27287C66.8924 5.63751 72.9152 5.63447 78.7946 8.06786C84.6826 10.5048 90.6816 15.4921 96.0405 24.2733L97.5442 26.7372L102.542 23.7722L101.039 21.3083C95.1877 11.721 88.3193 5.77277 81.0523 2.7651C73.7768 -0.246128 66.3571 -0.202867 59.6197 1.75688C47.1601 5.38111 36.6904 15.6701 33.1241 26.0868Z" fill="#717FFF"/>
</svg>
