<svg width="48" height="51" viewBox="0 0 48 51" fill="none" xmlns="http://www.w3.org/2000/svg">
<path fill-rule="evenodd" clip-rule="evenodd" d="M0.000691033 22.4319C-0.0991579 10.45 10.6346 0.831238 23.7148 0.731389C36.8033 0.623219 47.6785 10.0673 47.7701 22.0575C47.8616 34.0476 37.1362 43.6664 24.056 43.7663C21.9327 43.7872 19.8147 43.5497 17.7488 43.059L5.66712 50.09C5.48761 50.1948 5.28007 50.2415 5.07299 50.2236C4.8659 50.2057 4.66943 50.1242 4.51053 49.9902C4.35231 49.8538 4.23961 49.6723 4.18755 49.47C4.1355 49.2677 4.14657 49.0544 4.21931 48.8586L8.16334 38.4743C5.67844 36.5914 3.65287 34.1695 2.23903 31.3908C0.825188 28.6121 0.0598837 25.549 0.000691033 22.4319ZM30.5944 24.7714C31.1121 24.9589 33.8887 26.3187 34.4535 26.6C34.5637 26.6549 34.6666 26.7044 34.7621 26.7504C35.1561 26.9399 35.4222 27.0678 35.5359 27.2565C35.6771 27.491 35.6771 28.6162 35.2065 29.9292C34.7357 31.2421 32.4795 32.4404 31.3945 32.6017C30.4213 32.7464 29.1901 32.8067 27.8373 32.379C27.017 32.12 25.9651 31.7741 24.6176 31.1951C19.3242 28.9203 15.7466 23.8147 15.0694 22.8483C15.0219 22.7804 14.9886 22.7329 14.9701 22.7083L14.9655 22.7022C14.6666 22.3054 12.6641 19.6461 12.6641 16.8941C12.6641 14.3051 13.9419 12.9481 14.5301 12.3235C14.5704 12.2807 14.6075 12.2414 14.6407 12.2053C15.1583 11.6426 15.7702 11.502 16.1466 11.502C16.5231 11.502 16.8999 11.5054 17.229 11.5217C17.2695 11.5237 17.3117 11.5234 17.3553 11.5232C17.6845 11.5212 18.095 11.5188 18.4997 12.4866C18.6555 12.8591 18.8835 13.4114 19.1239 13.9938C19.6098 15.171 20.1466 16.4715 20.241 16.6597C20.3822 16.941 20.4764 17.2693 20.2881 17.6444C20.26 17.7004 20.234 17.7532 20.2092 17.8037C20.0676 18.0916 19.9636 18.303 19.7234 18.5822C19.6291 18.6917 19.5317 18.8097 19.4344 18.9277C19.2399 19.1634 19.0455 19.399 18.8762 19.5668C18.5935 19.8471 18.2991 20.1512 18.6285 20.7139C18.958 21.2766 20.0915 23.1174 21.7703 24.6075C23.575 26.2095 25.1436 26.8867 25.9387 27.2299C26.0939 27.2969 26.2196 27.3512 26.3119 27.3972C26.8766 27.6785 27.2061 27.6316 27.5355 27.2565C27.865 26.8814 28.9473 25.6154 29.3237 25.0528C29.7003 24.49 30.0768 24.5837 30.5944 24.7714Z" fill="#717FFF"/>
</svg>
