<svg width="61" height="61" viewBox="0 0 61 61" fill="none" xmlns="http://www.w3.org/2000/svg">
<circle cx="30.5" cy="30.5" r="30.5" fill="#FC9B09"/>
<path d="M39.8477 39.38V44H21.3327V40.325L30.7827 31.4C31.7861 30.4433 32.4627 29.6267 32.8127 28.95C33.1627 28.25 33.3377 27.5617 33.3377 26.885C33.3377 25.905 32.9994 25.1583 32.3227 24.645C31.6694 24.1083 30.7011 23.84 29.4177 23.84C28.3444 23.84 27.3761 24.05 26.5127 24.47C25.6494 24.8667 24.9261 25.4733 24.3427 26.29L20.2127 23.63C21.1694 22.2067 22.4877 21.0983 24.1677 20.305C25.8477 19.4883 27.7727 19.08 29.9427 19.08C31.7627 19.08 33.3494 19.3833 34.7027 19.99C36.0794 20.5733 37.1411 21.4133 37.8877 22.51C38.6577 23.5833 39.0427 24.855 39.0427 26.325C39.0427 27.655 38.7627 28.9033 38.2027 30.07C37.6427 31.2367 36.5577 32.5667 34.9477 34.06L29.3127 39.38H39.8477Z" fill="white"/>
</svg>
