<svg width="61" height="61" viewBox="0 0 61 61" fill="none" xmlns="http://www.w3.org/2000/svg">
<circle cx="30.5" cy="30.5" r="30.5" fill="#FC9B09"/>
<path d="M32.9536 29.475C35.1002 29.825 36.7452 30.63 37.8886 31.89C39.0319 33.1267 39.6036 34.6667 39.6036 36.51C39.6036 37.9333 39.2302 39.2517 38.4836 40.465C37.7369 41.655 36.5936 42.6117 35.0536 43.335C33.5369 44.0583 31.6702 44.42 29.4536 44.42C27.7269 44.42 26.0236 44.1983 24.3436 43.755C22.6869 43.2883 21.2752 42.635 20.1086 41.795L22.3136 37.455C23.2469 38.155 24.3202 38.7033 25.5336 39.1C26.7702 39.4733 28.0302 39.66 29.3136 39.66C30.7369 39.66 31.8569 39.3917 32.6736 38.855C33.4902 38.295 33.8986 37.5133 33.8986 36.51C33.8986 34.5033 32.3702 33.5 29.3136 33.5H26.7236V29.755L31.7636 24.05H21.3336V19.5H38.4836V23.175L32.9536 29.475Z" fill="white"/>
</svg>
