<svg width="118" height="17" viewBox="0 0 118 17" fill="none" xmlns="http://www.w3.org/2000/svg">
<path d="M17.2168 5.79584L12.2598 5.32991C11.9473 5.30167 11.6774 5.10401 11.5496 4.80751L9.77417 0.529461C9.49009 -0.176487 8.48164 -0.176487 8.19757 0.529461L6.43632 4.80751C6.3227 5.10401 6.03862 5.30167 5.72615 5.32991L0.769095 5.79584C0.0305089 5.86643 -0.267766 6.78417 0.286173 7.27833L4.02172 10.5398C4.26318 10.7516 4.3626 11.0622 4.29158 11.3728L3.1695 15.9474C2.99906 16.6674 3.78025 17.2604 4.43362 16.8792L8.56686 14.4649C8.83673 14.3096 9.16341 14.3096 9.43328 14.4649L13.5665 16.8792C14.2199 17.2604 15.0011 16.6816 14.8306 15.9474L13.7228 11.3728C13.6517 11.0622 13.7512 10.7516 13.9926 10.5398L17.7282 7.27833C18.2679 6.78417 17.9554 5.86643 17.2168 5.79584Z" fill="#FC9B09"/>
<path d="M42.2168 5.79584L37.2598 5.32991C36.9473 5.30167 36.6774 5.10401 36.5496 4.80751L34.7742 0.529461C34.4901 -0.176487 33.4816 -0.176487 33.1976 0.529461L31.4363 4.80751C31.3227 5.10401 31.0386 5.30167 30.7261 5.32991L25.7691 5.79584C25.0305 5.86643 24.7322 6.78417 25.2862 7.27833L29.0217 10.5398C29.2632 10.7516 29.3626 11.0622 29.2916 11.3728L28.1695 15.9474C27.9991 16.6674 28.7803 17.2604 29.4336 16.8792L33.5669 14.4649C33.8367 14.3096 34.1634 14.3096 34.4333 14.4649L38.5665 16.8792C39.2199 17.2604 40.0011 16.6816 39.8306 15.9474L38.7228 11.3728C38.6517 11.0622 38.7512 10.7516 38.9926 10.5398L42.7282 7.27833C43.2679 6.78417 42.9554 5.86643 42.2168 5.79584Z" fill="#FC9B09"/>
<path d="M67.2168 5.79584L62.2598 5.32991C61.9473 5.30167 61.6774 5.10401 61.5496 4.80751L59.7742 0.529461C59.4901 -0.176487 58.4816 -0.176487 58.1976 0.529461L56.4363 4.80751C56.3227 5.10401 56.0386 5.30167 55.7261 5.32991L50.7691 5.79584C50.0305 5.86643 49.7322 6.78417 50.2862 7.27833L54.0217 10.5398C54.2632 10.7516 54.3626 11.0622 54.2916 11.3728L53.1695 15.9474C52.9991 16.6674 53.7803 17.2604 54.4336 16.8792L58.5669 14.4649C58.8367 14.3096 59.1634 14.3096 59.4333 14.4649L63.5665 16.8792C64.2199 17.2604 65.0011 16.6816 64.8306 15.9474L63.7228 11.3728C63.6517 11.0622 63.7512 10.7516 63.9926 10.5398L67.7282 7.27833C68.2679 6.78417 67.9554 5.86643 67.2168 5.79584Z" fill="#FC9B09"/>
<path d="M92.2168 5.79584L87.2598 5.32991C86.9473 5.30167 86.6774 5.10401 86.5496 4.80751L84.7742 0.529461C84.4901 -0.176487 83.4816 -0.176487 83.1976 0.529461L81.4363 4.80751C81.3227 5.10401 81.0386 5.30167 80.7261 5.32991L75.7691 5.79584C75.0305 5.86643 74.7322 6.78417 75.2862 7.27833L79.0217 10.5398C79.2632 10.7516 79.3626 11.0622 79.2916 11.3728L78.1695 15.9474C77.9991 16.6674 78.7803 17.2604 79.4336 16.8792L83.5669 14.4649C83.8367 14.3096 84.1634 14.3096 84.4333 14.4649L88.5665 16.8792C89.2199 17.2604 90.0011 16.6816 89.8306 15.9474L88.7228 11.3728C88.6517 11.0622 88.7512 10.7516 88.9926 10.5398L92.7282 7.27833C93.2679 6.78417 92.9554 5.86643 92.2168 5.79584Z" fill="#FC9B09"/>
<path d="M117.217 5.79584L112.26 5.32991C111.947 5.30167 111.677 5.10401 111.55 4.80751L109.774 0.529461C109.49 -0.176487 108.482 -0.176487 108.198 0.529461L106.436 4.80751C106.323 5.10401 106.039 5.30167 105.726 5.32991L100.769 5.79584C100.031 5.86643 99.7322 6.78417 100.286 7.27833L104.022 10.5398C104.263 10.7516 104.363 11.0622 104.292 11.3728L103.17 15.9474C102.999 16.6674 103.78 17.2604 104.434 16.8792L108.567 14.4649C108.837 14.3096 109.163 14.3096 109.433 14.4649L113.567 16.8792C114.22 17.2604 115.001 16.6816 114.831 15.9474L113.723 11.3728C113.652 11.0622 113.751 10.7516 113.993 10.5398L117.728 7.27833C118.268 6.78417 117.955 5.86643 117.217 5.79584Z" fill="#FC9B09"/>
</svg>
