<svg width="33" height="33" viewBox="0 0 33 33" fill="none" xmlns="http://www.w3.org/2000/svg">
<g clip-path="url(#clip0_74_320)">
<path d="M25.1434 8.72598C25.1434 3.95176 21.2738 0.0821533 16.4989 0.0821533C11.724 0.0821533 7.8551 3.95176 7.8551 8.72598C7.8551 15.5661 16.4989 25.6879 16.4989 25.6879C16.4989 25.6879 25.1434 15.5309 25.1434 8.72598ZM12.236 8.20985C12.236 5.85482 14.1453 3.94624 16.4996 3.94624C18.854 3.94624 20.7632 5.85482 20.7632 8.20985C20.7632 10.5649 18.854 12.4735 16.4996 12.4735C14.1453 12.4735 12.236 10.5649 12.236 8.20985Z" fill="#37373F"/>
<path d="M16.499 10.3061C17.6567 10.3061 18.5952 9.36753 18.5952 8.20979C18.5952 7.05206 17.6567 6.11353 16.499 6.11353C15.3412 6.11353 14.4027 7.05206 14.4027 8.20979C14.4027 9.36753 15.3412 10.3061 16.499 10.3061Z" fill="#C94042"/>
<path d="M21.3863 22.6809C20.6818 23.6994 20.0208 24.586 19.4702 25.2981C24.9323 25.6266 28.5121 26.8058 29.8439 27.6828C28.2837 28.7116 23.6482 30.1579 16.5003 30.1579C9.35316 30.1579 4.71695 28.711 3.15682 27.6828C4.48855 26.8058 8.06559 25.6273 13.5222 25.2988C12.9702 24.5867 12.3085 23.7008 11.6033 22.6823C4.88186 23.344 0 25.3326 0 27.6821C0 30.5733 7.388 32.918 16.5003 32.918C25.6134 32.918 33 30.5747 33 27.6821C33.0014 25.3313 28.114 23.3419 21.3863 22.6809Z" fill="#37373F"/>
</g>
<defs>
<clipPath id="clip0_74_320">
<rect width="33" height="33" fill="white"/>
</clipPath>
</defs>
</svg>
