<svg width="32" height="36" viewBox="0 0 32 36" fill="none" xmlns="http://www.w3.org/2000/svg">
<path d="M28.911 14.3018H23.7793V13.5933C23.7793 13.1676 23.4342 12.8225 23.0085 12.8225H8.99475C8.56906 12.8225 8.22396 13.1676 8.22396 13.5933V14.3018H3.0922C2.6665 14.3018 2.32141 14.6469 2.32141 15.0726V18.5631C2.32141 19.5174 2.69308 20.4146 3.36792 21.0894C4.04277 21.7642 4.93996 22.1359 5.89427 22.1359H8.42136C9.15933 25.3442 11.8874 27.8006 15.2309 28.1311V31.6008H13.1666C11.9743 31.6008 11.0042 32.5709 11.0042 33.7632V35.0306C11.0042 35.4562 11.3493 35.8013 11.775 35.8013H20.2284C20.6541 35.8013 20.9992 35.4562 20.9992 35.0306V33.7632C20.9992 32.5709 20.0291 31.6008 18.8368 31.6008H16.7725V28.131C20.1161 27.8006 22.8441 25.3441 23.582 22.1359H26.109C28.0792 22.1359 29.682 20.5331 29.682 18.563V15.0726C29.6818 14.6469 29.3367 14.3018 28.911 14.3018ZM19.4575 33.7632V34.2598H12.5457V33.7632C12.5457 33.4209 12.8243 33.1424 13.1666 33.1424H18.8367C19.179 33.1423 19.4575 33.4208 19.4575 33.7632ZM8.22521 20.5943H5.8942C5.35164 20.5943 4.84152 20.3831 4.45796 19.9994C4.07418 19.6157 3.86299 19.1056 3.86299 18.5631V15.8434H8.22529V20.5943H8.22521ZM22.2377 20.3915C22.2377 23.8301 19.4402 26.6276 16.0016 26.6276C12.563 26.6276 9.76554 23.8301 9.76554 20.3915V14.3641H22.2377V20.3915ZM23.778 15.8433H28.1403V18.563C28.1403 19.683 27.2291 20.5943 26.109 20.5943H23.778V15.8433V15.8433Z" fill="#37373F"/>
<path d="M12.7289 7.09889L12.1506 10.1508C12.095 10.4438 12.2135 10.7426 12.4549 10.9179C12.6963 11.0932 13.0169 11.1136 13.2785 10.9702L16.0023 9.47718L18.7262 10.9702C18.8421 11.0337 18.9696 11.0651 19.0967 11.0651C19.2564 11.0651 19.4154 11.0155 19.5498 10.9179C19.791 10.7426 19.9095 10.4438 19.8541 10.1508L19.2759 7.09889L21.5374 4.96975C21.7546 4.76531 21.8343 4.45398 21.7422 4.17033C21.65 3.88668 21.4025 3.68165 21.1067 3.64392L18.0253 3.25082L16.6993 0.441772C16.572 0.172069 16.3005 0 16.0023 0C15.704 0 15.4326 0.172069 15.3053 0.441772L13.9792 3.25082L10.8979 3.64392C10.6021 3.68165 10.3546 3.88668 10.2624 4.17033C10.1703 4.45391 10.25 4.76538 10.4671 4.96975L12.7289 7.09889ZM14.5935 4.72655C14.8546 4.69322 15.0806 4.52901 15.193 4.29094L16.0023 2.57642L16.8116 4.29094C16.9239 4.52893 17.1499 4.69315 17.4111 4.72655L19.2919 4.96652L17.9115 6.26607C17.7199 6.44651 17.6336 6.71217 17.6825 6.97079L18.0355 8.83375L16.3728 7.92238C16.2574 7.85911 16.1298 7.82747 16.0023 7.82747C15.8748 7.82747 15.7472 7.85911 15.6318 7.92238L13.9692 8.83368L14.3223 6.97079C14.3713 6.71225 14.2849 6.44643 14.0933 6.26607L12.7128 4.96652L14.5935 4.72655Z" fill="#FC9B09"/>
<path d="M31.9624 6.92039C31.8701 6.63674 31.6227 6.43171 31.3269 6.39397L29.1049 6.11047L28.1488 4.08484C28.0215 3.81514 27.75 3.64307 27.4518 3.64307C27.1536 3.64307 26.882 3.81514 26.7548 4.08484L25.7985 6.11047L23.5766 6.39397C23.2808 6.43171 23.0333 6.63674 22.9411 6.92039C22.849 7.20396 22.9287 7.51536 23.1459 7.7198L24.7768 9.25507L24.3597 11.4558C24.3042 11.7488 24.4226 12.0476 24.664 12.2228C24.7984 12.3205 24.9574 12.3701 25.1172 12.3701C25.2442 12.3701 25.3717 12.3387 25.4876 12.2752L27.4518 11.1986L29.416 12.2752C29.6776 12.4186 29.9983 12.3982 30.2396 12.2228C30.4808 12.0475 30.5993 11.7488 30.5439 11.4558L30.1269 9.25507L31.7578 7.7198C31.9748 7.51536 32.0545 7.20404 31.9624 6.92039ZM28.7625 8.42225C28.571 8.60261 28.4846 8.86835 28.5336 9.12697L28.7253 10.1387L27.8222 9.64377C27.7068 9.58049 27.5792 9.54885 27.4517 9.54885C27.3242 9.54885 27.1966 9.58049 27.0812 9.64377L26.1784 10.1386L26.37 9.12697C26.4191 8.86843 26.3327 8.60261 26.1411 8.42218L25.3913 7.7165L26.4127 7.5862C26.6738 7.55295 26.8998 7.38873 27.0121 7.15067L27.4516 6.21956L27.8911 7.15067C28.0034 7.38866 28.2295 7.55287 28.4906 7.5862L29.512 7.7165L28.7625 8.42225Z" fill="#FC9B09"/>
<path d="M4.54831 11.1986L6.51258 12.2752C6.77413 12.4187 7.09485 12.3983 7.33614 12.2229C7.57736 12.0476 7.69584 11.7489 7.64042 11.4559L7.22346 9.25514L8.8543 7.71988C9.07145 7.51544 9.15117 7.20411 9.05904 6.92046C8.96684 6.63681 8.71938 6.43178 8.42354 6.39405L6.20154 6.11047L5.24533 4.08484C5.11804 3.81514 4.8465 3.64307 4.54831 3.64307C4.25013 3.64307 3.97859 3.81514 3.8513 4.08484L2.89516 6.11047L0.67323 6.39397C0.377394 6.43171 0.129934 6.63674 0.0377332 6.92039C-0.0543944 7.20396 0.0253273 7.51536 0.242469 7.7198L1.87346 9.25507L1.45635 11.4558C1.40078 11.7488 1.51926 12.0476 1.76063 12.2228C1.89504 12.3205 2.05404 12.3701 2.21378 12.3701C2.34085 12.3701 2.46836 12.3387 2.5842 12.2752L4.54831 11.1986ZM3.50936 7.5862C3.77048 7.55295 3.9965 7.38873 4.10882 7.15067L4.54831 6.21956L4.98781 7.15067C5.10012 7.38866 5.32615 7.55287 5.58726 7.5862L6.60874 7.7165L5.85909 8.42225C5.6675 8.60261 5.58117 8.86835 5.63013 9.12697L5.8218 10.1387L4.91873 9.64377C4.80333 9.58049 4.67575 9.54885 4.54824 9.54885C4.42073 9.54885 4.29315 9.58049 4.17775 9.64377L3.2749 10.1386L3.46657 9.12697C3.5156 8.86843 3.4292 8.60261 3.23761 8.42218L2.48789 7.7165L3.50936 7.5862Z" fill="#FC9B09"/>
</svg>
