<svg width="31" height="27" viewBox="0 0 31 27" fill="none" xmlns="http://www.w3.org/2000/svg">
<path d="M3.52914 16.9207L3.52789 16.919C1.89741 14.7951 0.746523 12.2822 0.531246 9.67387C0.149047 4.9327 3.2697 0.5 8.2286 0.5C11.1675 0.5 13.7282 2.08465 15.091 4.46163L15.5303 5.22778L15.9612 4.45692C17.272 2.11224 19.8534 0.524782 22.7959 0.524782C27.7768 0.524782 30.8506 4.95387 30.4683 9.69822C30.2535 12.303 29.0801 14.7917 27.4703 16.9208C25.5664 19.4142 23.1652 21.3869 20.5837 23.2087L20.5782 23.2125L20.5522 23.2306L20.4522 23.2999L20.0845 23.5549L18.8722 24.396C17.9258 25.0527 16.8011 25.8335 16.0887 26.3294C15.7658 26.5533 15.3163 26.5617 14.9555 26.3257C14.242 25.8291 13.1138 25.0502 12.1636 24.3951C11.6872 24.0667 11.2553 23.7692 10.9425 23.5539L10.5719 23.2989L10.4711 23.2295L10.4449 23.2115L10.4385 23.207C7.85551 21.3841 5.40656 19.3872 3.52914 16.9207Z" fill="#FC9B09" stroke="#FC9B09"/>
</svg>
